HIERARCHY
ROOT Pelvis
{
	OFFSET 0.000000 0.000000 0.000000
	CHANNELS 6 Xposition Yposition Zposition Xrotation Yrotation Zrotation
	JOINT LeftUpLeg_virtual
	{
		OFFSET 0.000000 0.000000 0.000000
		CHANNELS 3 Xrotation Yrotation Zrotation
		JOINT LeftUpLeg
		{
			OFFSET 18.735201 -5.666702 -4.541200
			CHANNELS 3 Xrotation Yrotation Zrotation
			JOINT LeftLeg
			{
				OFFSET -0.021200 -31.938179 0.493100
				CHANNELS 3 Xrotation Yrotation Zrotation
				JOINT LeftFoot
				{
					OFFSET 0.021200 -31.938179 -4.336299
					CHANNELS 3 Xrotation Yrotation Zrotation
					JOINT LeftToeBase
					{
						OFFSET 0.943001 -26.722000 15.023500
						CHANNELS 3 Xrotation Yrotation Zrotation
						End Site
						{
							OFFSET 0 0 0
						}
					}
				}
			}
		}
	}
	JOINT RightUpLeg_virtual
	{
		OFFSET 0.000000 0.000000 0.000000
		CHANNELS 3 Xrotation Yrotation Zrotation
		JOINT RightUpLeg
		{
			OFFSET -18.735201 -5.666702 -4.541200
			CHANNELS 3 Xrotation Yrotation Zrotation
			JOINT RightLeg
			{
				OFFSET 0.018946 -31.938133 0.493100
				CHANNELS 3 Xrotation Yrotation Zrotation
				JOINT RightFoot
				{
					OFFSET -0.018946 -31.938126 -4.336299
					CHANNELS 3 Xrotation Yrotation Zrotation
					JOINT RightToeBase
					{
						OFFSET -0.943001 -26.722004 15.023500
						CHANNELS 3 Xrotation Yrotation Zrotation
						End Site
						{
							OFFSET 0 0 0
						}
					}
				}
			}
		}
	}
	JOINT Hips_virtual
	{
		OFFSET 0.000000 0.000000 0.000000
		CHANNELS 3 Xrotation Yrotation Zrotation
		JOINT Hips
		{
			OFFSET -0.000000 -0.000000 -0.000000
			CHANNELS 3 Xrotation Yrotation Zrotation
			JOINT Spine
			{
				OFFSET 0.000000 10.199997 -0.299500
				CHANNELS 3 Xrotation Yrotation Zrotation
				JOINT Spine1
				{
					OFFSET 0.000000 11.900002 -1.516600
					CHANNELS 3 Xrotation Yrotation Zrotation
					JOINT Spine2
					{
						OFFSET 0.000000 13.600006 -2.842500
						CHANNELS 3 Xrotation Yrotation Zrotation
						JOINT Neck_virtual
						{
							OFFSET 0.000000 0.000000 0.000000
							CHANNELS 3 Xrotation Yrotation Zrotation
							JOINT Neck
							{
								OFFSET 0.000000 9.624100 -2.890100
								CHANNELS 3 Xrotation Yrotation Zrotation
								JOINT Head
								{
									OFFSET 0.000000 14.068802 -1.351900
									CHANNELS 3 Xrotation Yrotation Zrotation
									End Site
									{
										OFFSET 0 0 0
									}
								}
							}
						}
						JOINT LeftShoulder_virtual
						{
							OFFSET 0.000000 0.000000 0.000000
							CHANNELS 3 Xrotation Yrotation Zrotation
							JOINT LeftShoulder
							{
								OFFSET 15.263000 10.923401 -0.547700
								CHANNELS 3 Xrotation Yrotation Zrotation
								JOINT LeftArm
								{
									OFFSET 25.438599 -2.830597 -13.032500
									CHANNELS 3 Xrotation Yrotation Zrotation
									JOINT LeftForeArm
									{
										OFFSET 29.960503 0.000000 0.000000
										CHANNELS 3 Xrotation Yrotation Zrotation
										JOINT LeftHand
										{
											OFFSET 27.849251 0.000000 0.000000
											CHANNELS 3 Xrotation Yrotation Zrotation
											End Site
											{
												OFFSET 0 0 0
											}
										}
									}
								}
							}
						}
						JOINT RightShoulder_virtual
						{
							OFFSET 0.000000 0.000000 0.000000
							CHANNELS 3 Xrotation Yrotation Zrotation
							JOINT RightShoulder
							{
								OFFSET -15.263000 10.923401 -0.547700
								CHANNELS 3 Xrotation Yrotation Zrotation
								JOINT RightArm
								{
									OFFSET -25.438599 -2.830597 -13.032500
									CHANNELS 3 Xrotation Yrotation Zrotation
									JOINT RightForeArm
									{
										OFFSET -29.960503 0.000000 0.000000
										CHANNELS 3 Xrotation Yrotation Zrotation
										JOINT RightHand
										{
											OFFSET -27.849251 0.000000 0.000000
											CHANNELS 3 Xrotation Yrotation Zrotation
											End Site
											{
												OFFSET 0 0 0
											}
										}
									}
								}
							}
						}
					}
				}
			}
		}
	}
}
MOTION
Frames: 6
Frame Time: 0.03333333
-3.519889 90.456184 1.539434 0.000000 0.000000 0.000000 15.468037 -34.267062 4.940332 -23.378197 3.145500 15.537350 45.803494 4.898136 -4.801877 -2.209463 7.260817 -9.715206 0.000000 0.000000 0.000000 12.429324 -6.659083 5.310360 -14.051618 -8.858734 -9.970945 20.857806 -9.444883 1.326681 -26.859920 -13.997511 7.489857 0.000000 0.000000 0.000000 2.793444 8.034671 0.365878 5.524109 29.492770 -4.630645 4.759667 4.894300 -1.471597 0.200511 2.622831 -0.266247 0.000000 0.000000 0.000000 0.113256 2.373584 -1.019864 -1.641823 2.135061 -1.064960 0.000000 0.000000 0.000000 1.122188 2.338648 1.535189 0.449057 4.095725 1.030469 -51.190116 -15.082697 -34.622239 -19.086465 -70.288480 -9.153778 0.000000 0.000000 0.000000 3.288395 3.077385 0.289562 3.070176 13.191062 7.416680 20.736241 0.240341 50.971004 10.220629 46.825158 0.116455 0.000000 0.000000 0.000000 
-3.700531 90.537537 1.536813 0.000000 0.000000 0.000000 15.282167 -33.888653 4.892146 -23.519751 3.196759 15.605693 45.644023 5.118753 -4.927034 -2.375830 7.555368 -9.758098 0.000000 0.000000 0.000000 12.411030 -5.977907 5.158530 -13.947631 -8.649849 -9.999340 21.174013 -9.253000 1.231978 -26.598381 -13.775383 7.436466 0.000000 0.000000 0.000000 2.749267 7.778596 0.388267 4.606143 27.994688 -4.025728 4.826486 4.827891 -1.423667 0.254235 2.579490 -0.233299 0.000000 0.000000 0.000000 0.121929 2.199566 -0.982592 -1.679205 1.932135 -1.014086 0.000000 0.000000 0.000000 1.132791 2.327217 1.550814 0.491107 3.785662 0.987788 -51.412425 -14.983224 -35.390010 -20.165490 -70.970856 -10.166247 0.000000 0.000000 0.000000 3.401681 3.031642 0.244859 3.099910 13.006183 7.401267 20.544355 0.856229 50.715285 10.358445 46.526695 -0.016370 0.000000 0.000000 0.000000 
-3.879290 90.610306 1.519764 0.000000 0.000000 0.000000 15.095292 -33.549555 4.850399 -23.673492 3.236588 15.673723 45.509749 5.369049 -5.069952 -2.524746 7.887944 -9.807680 0.000000 0.000000 0.000000 12.388697 -5.332263 5.007595 -13.858155 -8.449463 -10.034743 21.517083 -9.048212 1.139215 -26.318017 -13.539866 7.392464 0.000000 0.000000 0.000000 2.714182 7.489100 0.406225 3.734175 26.377467 -3.478895 4.905751 4.756215 -1.383633 0.315801 2.533923 -0.205118 0.000000 0.000000 0.000000 0.117913 2.031637 -0.943761 -1.722857 1.732394 -0.960651 0.000000 0.000000 0.000000 1.155231 2.311561 1.565194 0.534374 3.453415 0.949037 -51.612994 -14.876217 -36.162819 -21.294793 -71.631049 -11.238378 0.000000 0.000000 0.000000 3.517300 2.980403 0.198724 3.124653 12.801722 7.370566 20.374541 1.491683 50.436996 10.505828 46.231221 -0.150481 0.000000 0.000000 0.000000 
-4.054257 90.673691 1.483970 0.000000 0.000000 0.000000 14.910028 -33.260474 4.816373 -23.838579 3.262863 15.740615 45.400097 5.651465 -5.230961 -2.657077 8.261039 -9.862622 0.000000 0.000000 0.000000 12.362597 -4.731837 4.859218 -13.783426 -8.260502 -10.076774 21.886600 -8.829680 1.048187 -26.018890 -13.290087 7.358220 0.000000 0.000000 0.000000 2.696696 7.175936 0.416094 2.948333 24.655207 -3.019058 4.998109 4.678126 -1.351776 0.385591 2.485488 -0.181873 0.000000 0.000000 0.000000 0.095493 1.864443 -0.903090 -1.775409 1.532451 -0.904348 0.000000 0.000000 0.000000 1.189122 2.291882 1.577892 0.577690 3.099105 0.914398 -51.791473 -14.761019 -36.931601 -22.467774 -72.262473 -12.361484 0.000000 0.000000 0.000000 3.635936 2.923737 0.151162 3.144612 12.578261 7.322794 20.229139 2.148083 50.140214 10.661124 45.936622 -0.280047 0.000000 0.000000 0.000000 
-4.222967 90.728233 1.426103 0.000000 0.000000 0.000000 14.728403 -33.028227 4.790685 -24.014267 3.274462 15.805842 45.313988 5.967064 -5.409827 -2.774402 8.675374 -9.921584 0.000000 0.000000 0.000000 12.332619 -4.185724 4.714470 -13.724104 -8.085590 -10.125579 22.280584 -8.596233 0.958651 -25.702010 -13.024963 7.334278 0.000000 0.000000 0.000000 2.705641 6.852137 0.414391 2.287694 22.848965 -2.670690 5.103121 4.592292 -1.327598 0.463417 2.433429 -0.163311 0.000000 0.000000 0.000000 0.050289 1.691929 -0.859602 -1.838814 1.328419 -0.844551 0.000000 0.000000 0.000000 1.233990 2.268316 1.588553 0.619921 2.721911 0.883847 -51.947840 -14.639102 -37.685395 -23.671522 -72.857846 -13.520173 0.000000 0.000000 0.000000 3.758795 2.862169 0.102330 3.160424 12.337954 7.256959 20.108225 2.824031 49.830116 10.820900 45.637285 -0.398170 0.000000 0.000000 0.000000 
-4.382580 90.775597 1.344728 0.000000 0.000000 0.000000 14.551991 -32.855460 4.773232 -24.199697 3.271401 15.869043 45.250048 6.315184 -5.605701 -2.878748 9.129496 -9.983384 0.000000 0.000000 0.000000 12.298345 -3.701681 4.573831 -13.681119 -7.926865 -10.181754 22.695805 -8.346259 0.870521 -25.369133 -12.743173 7.321729 0.000000 0.000000 0.000000 2.748525 6.531662 0.398674 1.782864 20.982290 -2.447413 5.219417 4.497336 -1.310161 0.548621 2.376955 -0.148938 0.000000 0.000000 0.000000 -0.019262 1.508075 -0.811495 -1.913607 1.116396 -0.780269 0.000000 0.000000 0.000000 1.289331 2.240908 1.596946 0.660034 2.320020 0.857224 -52.082218 -14.513735 -38.411495 -24.884963 -73.409439 -14.690673 0.000000 0.000000 0.000000 3.887208 2.796658 0.052534 3.172799 12.084195 7.172857 20.009213 3.514280 49.512352 10.979865 45.323691 -0.497393 0.000000 0.000000 0.000000 
